# xmcd
#
# Track frame offsets:
#   150
#   30249
#   117749
#   183235
#   225285
#   262919
#   292687
#   317195
#   350939
#
# Disc length: 4797 seconds
#
# Revision: 0
# Processed by: cddbd v1.5.2PL0 Copyright (c) Steve Scherf et al.
# Submitted via: GXTranscoder 2.0.1939
#
DISCID=7712bb09
DTITLE=Jonathan Stroud - Bartimäus - Das Auge des Golem CD5
DYEAR=1900
DGENRE=Hörbuch
TTITLE0=01 Das Auge des Golem
TTITLE1=02 Das Auge des Golem
TTITLE2=03 Das Auge des Golem
TTITLE3=04 Das Auge des Golem
TTITLE4=05 Das Auge des Golem
TTITLE5=06 Das Auge des Golem
TTITLE6=07 Das Auge des Golem
TTITLE7=08 Das Auge des Golem
TTITLE8=09 Das Auge des Golem
EXTD=
EXTT0=
EXTT1=
EXTT2=
EXTT3=
EXTT4=
EXTT5=
EXTT6=
EXTT7=
EXTT8=
PLAYORDER=
